<svg width="28pt" height="32pt" viewBox="0 0 28 32" xmlns="http://www.w3.org/2000/svg"><g id="fontsvg1713778974827" stroke-linecap="round" fill-rule="evenodd" fill="#4f46e5"><path d="M 11.801 31.757 L 5.701 31.857 Q 3.651 31.907 2.226 30.732 A 4.413 4.413 0 0 1 0.694 28.126 A 5.991 5.991 0 0 1 0.601 27.507 A 104.325 104.325 0 0 1 0.238 21.917 A 124.115 124.115 0 0 1 0.151 18.357 L 0.001 9.707 Q -0.046 4.913 1.709 2.62 A 5.519 5.519 0 0 1 1.901 2.382 A 5.944 5.944 0 0 1 4.213 0.767 Q 5.182 0.37 6.402 0.179 A 15.462 15.462 0 0 1 8.451 0.007 Q 20.709 -0.136 24.596 2.724 A 5.864 5.864 0 0 1 24.951 3.007 A 7.871 7.871 0 0 1 27.718 8.591 A 10.978 10.978 0 0 1 27.751 9.457 Q 27.751 10.836 27.33 12.662 A 26.536 26.536 0 0 1 26.951 14.107 A 12.736 12.736 0 0 1 25.508 17.305 A 9.742 9.742 0 0 1 22.101 20.557 Q 20.67 21.416 17.965 22.001 A 29.457 29.457 0 0 1 17.701 22.057 Q 18.551 24.007 18.551 25.457 Q 18.551 27.907 16.901 29.657 A 6.359 6.359 0 0 1 13.522 31.55 A 9.221 9.221 0 0 1 11.801 31.757 Z M 20.901 18.457 A 8.725 8.725 0 0 0 25.056 12.485 A 14.565 14.565 0 0 0 25.351 9.457 A 6.719 6.719 0 0 0 25.013 7.281 A 5.673 5.673 0 0 0 23.451 4.907 Q 20.651 2.357 10.951 2.357 Q 9.5 2.357 8.329 2.404 A 46.702 46.702 0 0 0 8.251 2.407 Q 5.639 2.494 4.206 3.676 A 4.525 4.525 0 0 0 2.751 5.957 A 5.999 5.999 0 0 0 2.59 6.707 Q 2.415 7.827 2.451 9.607 A 734.066 734.066 0 0 0 2.501 14.447 Q 2.631 23.806 2.974 27.017 A 21.495 21.495 0 0 0 3.001 27.257 Q 3.451 29.407 5.651 29.407 A 534.98 534.98 0 0 0 6.984 29.405 Q 11.364 29.395 11.801 29.307 A 6.341 6.341 0 0 0 13.132 29.145 Q 13.98 28.942 14.608 28.49 A 3.586 3.586 0 0 0 15.151 28.007 Q 16.101 26.957 16.101 25.457 A 5.571 5.571 0 0 0 15.857 23.872 Q 15.661 23.209 15.306 22.506 A 11.132 11.132 0 0 0 14.951 21.857 Q 14.334 20.432 15.567 20.045 A 2.363 2.363 0 0 1 15.701 20.007 Q 18.863 19.252 19.442 19.121 A 12.84 12.84 0 0 1 19.501 19.107 A 5.27 5.27 0 0 0 20.133 18.865 Q 20.503 18.696 20.901 18.457 Z M 5.825 5.345 A 2.242 2.242 0 0 0 4.901 6.157 A 2.625 2.625 0 0 0 4.716 6.626 Q 4.438 7.554 4.447 9.317 A 23.504 23.504 0 0 0 4.451 9.657 A 317.459 317.459 0 0 1 4.525 11.617 Q 4.685 16.242 4.601 18.407 A 63.649 63.649 0 0 0 4.574 19.428 Q 4.483 24.366 5.301 25.957 A 2.278 2.278 0 0 0 6.387 27.051 Q 7.2 27.457 8.501 27.457 A 19.011 19.011 0 0 0 8.577 27.457 Q 8.912 27.456 9.528 27.443 A 175.999 175.999 0 0 0 10.026 27.432 A 62.264 62.264 0 0 0 10.249 27.427 Q 10.912 27.409 11.4 27.38 A 18.638 18.638 0 0 0 11.751 27.357 Q 13.486 27.357 13.941 26.376 A 1.934 1.934 0 0 0 14.101 25.557 Q 14.101 24.007 12.251 21.657 Q 11.401 20.557 11.401 20.057 A 0.295 0.295 0 0 1 11.422 19.953 Q 11.526 19.678 12.151 19.282 Q 12.901 18.807 16.126 17.982 Q 19.351 17.157 19.901 16.807 Q 21.851 15.557 22.651 12.957 A 26.044 26.044 0 0 0 22.771 12.55 Q 23.301 10.686 23.301 9.557 Q 23.301 8.926 23.177 8.388 A 3.529 3.529 0 0 0 22.501 6.957 A 2.201 2.201 0 0 0 22.427 6.867 Q 21.566 5.874 19.03 5.244 A 23.176 23.176 0 0 0 17.401 4.907 Q 14.551 4.457 11.701 4.457 Q 7.51 4.457 5.825 5.345 Z M 11.251 10.707 L 11.401 13.807 A 9.591 9.591 0 0 0 12.63 13.662 Q 13.277 13.54 13.817 13.327 A 5.026 5.026 0 0 0 14.301 13.107 A 3.31 3.31 0 0 0 15.043 12.549 Q 15.772 11.803 15.701 10.707 Q 15.749 10.095 15.086 9.727 A 2.19 2.19 0 0 0 15.001 9.682 Q 14.251 9.307 13.451 9.307 A 5.408 5.408 0 0 0 12.703 9.354 Q 11.211 9.564 11.251 10.707 Z" vector-effect="non-scaling-stroke"/></g></svg>